<svg width="33" height="32" viewBox="0 0 33 32" fill="none" xmlns="http://www.w3.org/2000/svg">
<path d="M22.9498 6C23.6779 5.99939 24.3987 6.14413 25.0701 6.42575C25.7416 6.70736 26.35 7.12018 26.8598 7.64C27.9102 8.70638 28.499 10.1432 28.499 11.64C28.499 13.1368 27.9102 14.5736 26.8598 15.64L16.4998 26.13L6.13978 15.64C5.08936 14.5736 4.50056 13.1368 4.50056 11.64C4.50056 10.1432 5.08936 8.70638 6.13978 7.64C6.64987 7.12055 7.25835 6.70795 7.92969 6.42629C8.60102 6.14464 9.32175 5.99957 10.0498 5.99957C10.7778 5.99957 11.4985 6.14464 12.1699 6.42629C12.8412 6.70795 13.4497 7.12055 13.9598 7.64L16.4998 10.24L19.0298 7.66C19.538 7.13399 20.1471 6.71586 20.8207 6.43064C21.4942 6.14542 22.2183 5.99895 22.9498 6ZM22.9498 4C21.9554 3.99916 20.9709 4.19686 20.0539 4.5815C19.1369 4.96615 18.306 5.53 17.6098 6.24L16.4998 7.36L15.3898 6.24C14.6927 5.53129 13.8616 4.96841 12.9448 4.58419C12.028 4.19997 11.0438 4.0021 10.0498 4.0021C9.05571 4.0021 8.07159 4.19997 7.15479 4.58419C6.23798 4.96841 5.40683 5.53129 4.70978 6.24C3.29165 7.68363 2.49707 9.62636 2.49707 11.65C2.49707 13.6736 3.29165 15.6164 4.70978 17.06L16.4998 29L28.2898 17.06C29.7079 15.6164 30.5025 13.6736 30.5025 11.65C30.5025 9.62636 29.7079 7.68363 28.2898 6.24C27.5929 5.53091 26.7618 4.96765 25.845 4.58306C24.9282 4.19848 23.944 4.00028 22.9498 4Z" fill="white"/>
</svg>
